<svg width="72" height="72" viewBox="0 0 72 72" fill="none" xmlns="http://www.w3.org/2000/svg">
<g filter="url(#filter0_d_0_150)">
<rect x="4" width="64" height="64" rx="32" fill="#5D5DFF"/>
<path d="M43 43V36.7C44.8762 35.0274 45.9645 32.6443 46 30.131C46.0206 25.2313 42.1579 21.1949 37.262 21C34.83 20.9292 32.4729 21.846 30.728 23.5416C28.9831 25.2372 27.999 27.567 28 30V31L26 36L28 37V41C28 42.1046 28.8954 43 30 43H34C35.3261 43 36.5979 42.4732 37.5355 41.5355C38.4732 40.5979 39 39.3261 39 38V33" stroke="#F4F4FF" stroke-width="2" stroke-linecap="square"/>
<circle cx="39" cy="30" r="3" stroke="#CBCCFF" stroke-width="2" stroke-linecap="square"/>
</g>
<defs>
<filter id="filter0_d_0_150" x="0" y="0" width="72" height="72" filterUnits="userSpaceOnUse" color-interpolation-filters="sRGB">
<feFlood flood-opacity="0" result="BackgroundImageFix"/>
<feColorMatrix in="SourceAlpha" type="matrix" values="0 0 0 0 0 0 0 0 0 0 0 0 0 0 0 0 0 0 127 0" result="hardAlpha"/>
<feOffset dy="4"/>
<feGaussianBlur stdDeviation="2"/>
<feComposite in2="hardAlpha" operator="out"/>
<feColorMatrix type="matrix" values="0 0 0 0 0 0 0 0 0 0 0 0 0 0 0 0 0 0 0.25 0"/>
<feBlend mode="normal" in2="BackgroundImageFix" result="effect1_dropShadow_0_150"/>
<feBlend mode="normal" in="SourceGraphic" in2="effect1_dropShadow_0_150" result="shape"/>
</filter>
</defs>
</svg>
